<svg xmlns="http://www.w3.org/2000/svg" xmlns:svg="http://www.w3.org/2000/svg" xmlns:xlink="http://www.w3.org/1999/xlink" version="1.0" height="1910.000000000001pt" width="683.9999999999992pt" viewBox="-914.9999999999999 277 691.9999999999992 1916.000000000001"><defs><style type="text/css">
        @font-face {
            font-family: 'lt_bold';
            src: url('https://app.creately.com/diagram/assets/fonts/lato/lt-bold-webfont.woff2') format('woff2'),
                url('https://app.creately.com/diagram/assets/fonts/lato/lt-bold-webfont.woff') format('woff');
            font-weight: normal;
            font-style: normal;
        }
        @font-face {
            font-family: 'lt_bold_italic';
            src: url('https://app.creately.com/diagram/assets/fonts/lato/lt-bolditalic-webfont.woff2') format('woff2'),
                url('https://app.creately.com/diagram/assets/fonts/lato/lt-bolditalic-webfont.woff') format('woff');
            font-weight: normal;
            font-style: normal;
        }
        @font-face {
            font-family: 'lt_italic';
            src: url('https://app.creately.com/diagram/assets/fonts/lato/lt-italic-webfont.woff2') format('woff2'),
                url('https://app.creately.com/diagram/assets/fonts/lato/lt-italic-webfont.woff') format('woff');
            font-weight: normal;
            font-style: normal;
        }
        @font-face {
            font-family: 'lt_regular';
            src: url('https://app.creately.com/diagram/assets/fonts/lato/lt-regular-webfont.woff2') format('woff2'),
                url('https://app.creately.com/diagram/assets/fonts/lato/lt-regular-webfont.woff') format('woff');
            font-weight: normal;
            font-style: normal;
        }
        @font-face {
            font-family: 'lt-hairline';
            src: url('https://app.creately.com/diagram/assets/fonts/embed/lt-hairline-webfont.woff2') format('woff2'),
                url('https://app.creately.com/diagram/assets/fonts/embed/lt-hairline-webfont.woff') format('woff');
            font-weight: normal;
            font-style: normal;
        }
        @font-face {
            font-family: 'lt-thinitalic';
            src: url('https://app.creately.com/diagram/assets/fonts/embed/lt-thinitalic-webfont.woff2') format('woff2'),
                url('https://app.creately.com/diagram/assets/fonts/embed/lt-thinitalic-webfont.woff') format('woff');
            font-weight: normal;
            font-style: normal;
        }
        @font-face {
            font-family: 'champagne';
            src: url('https://app.creately.com/diagram/assets/fonts/embed/champagne-webfont.woff2') format('woff2'),
                url('https://app.creately.com/diagram/assets/fonts/embed/champagne-webfont.woff') format('woff');
            font-weight: normal;
            font-style: normal;
        }
        @font-face {
            font-family: 'indie';
            src: url('https://app.creately.com/diagram/assets/fonts/embed/indie-flower-webfont.woff2') format('woff2'),
                url('https://app.creately.com/diagram/assets/fonts/embed/indie-flower-webfont.woff') format('woff');
            font-weight: normal;
            font-style: normal;
        }
        @font-face {
            font-family: 'bebas';
            src: url('https://app.creately.com/diagram/assets/fonts/embed/bebasneue_regular-webfont.woff2') format('woff2'),
                url('https://app.creately.com/diagram/assets/fonts/embed/bebasneue_regular-webfont.woff') format('woff');
            font-weight: normal;
            font-style: normal;
        }
        @font-face {
            font-family: 'bree';
            src: url('https://app.creately.com/diagram/assets/fonts/embed/breeserif-regular-webfont.woff2') format('woff2'),
                url('https://app.creately.com/diagram/assets/fonts/embed/breeserif-regular-webfont.woff') format('woff');
            font-weight: normal;
            font-style: normal;
        }
        @font-face {
            font-family: 'spartan';
            src: url('https://app.creately.com/diagram/assets/fonts/embed/leaguespartan-bold-webfont.woff2') format('woff2'),
                url('https://app.creately.com/diagram/assets/fonts/embed/leaguespartan-bold-webfont.woff') format('woff');
            font-weight: normal;
            font-style: normal;
        }
        @font-face {
            font-family: 'montserrat';
            src: url('https://app.creately.com/diagram/assets/fonts/embed/montserrat-medium-webfont.woff2') format('woff2'),
                url('https://app.creately.com/diagram/assets/fonts/embed/montserrat-medium-webfont.woff') format('woff');
            font-weight: normal;
            font-style: normal;
        }
        @font-face {
            font-family: 'open_sanscondensed';
            src: url('https://app.creately.com/diagram/assets/fonts/embed/opensans-condlight-webfont.woff2') format('woff2'),
                url('https://app.creately.com/diagram/assets/fonts/embed/opensans-condlight-webfont.woff') format('woff');
            font-weight: normal;
            font-style: normal;
        }
        @font-face {
            font-family: 'open_sansitalic';
            src: url('https://app.creately.com/diagram/assets/fonts/embed/opensans-italic-webfont.woff2') format('woff2'),
                url('https://app.creately.com/diagram/assets/fonts/embed/opensans-italic-webfont.woff') format('woff');
            font-weight: normal;
            font-style: normal;
        }
        @font-face {
            font-family: 'playfair';
            src: url('https://app.creately.com/diagram/assets/fonts/embed/playfairdisplay-regular-webfont.woff2') format('woff2'),
                url('https://app.creately.com/diagram/assets/fonts/embed/playfairdisplay-regular-webfont.woff') format('woff');
            font-weight: normal;
            font-style: normal;
        }
        @font-face {
            font-family: 'raleway';
            src: url('https://app.creately.com/diagram/assets/fonts/embed/raleway-regular-webfont.woff2') format('woff2'),
                url('https://app.creately.com/diagram/assets/fonts/embed/raleway-regular-webfont.woff') format('woff');
            font-weight: normal;
            font-style: normal;
        }
        @font-face {
            font-family: 'courier_prime';
            src: url('https://app.creately.com/diagram/assets/fonts/embed/courier_prime-webfont.woff2') format('woff2'),
                url('https://app.creately.com/diagram/assets/fonts/embed/courier_prime-webfont.woff') format('woff');
            font-weight: normal;
            font-style: normal;
        }
        @font-face {
            font-family: 'droid_serifregular';
            src: url('https://app.creately.com/diagram/assets/fonts/embed/droid-serif-regular-webfont.woff') format('woff');
            font-weight: normal;
            font-style: normal;
        }
        @font-face {
            font-family: 'abhaya_libreregular';
            src: url('https://app.creately.com/diagram/assets/fonts/embed/abhaya-libre-regular-webfont.woff') format('woff');
            font-weight: normal;
            font-style: normal;
        }
        @font-face {
            font-family: 'gandhi_serifregular';
            src: url('https://app.creately.com/diagram/assets/fonts/embed/gandhi-serif-regular-webfont.woff') format('woff');
            font-weight: normal;
            font-style: normal;
        }
        @font-face {
            font-family: 'noto_bold';
            src: url('https://app.creately.com/diagram/assets/fonts/noto/noto-bold.woff') format('woff'),
                 url('https://app.creately.com/diagram/assets/fonts/noto/noto-bold.woff2') format('woff2');
            font-weight: normal;
            font-style: normal;
        }
        @font-face {
            font-family: 'noto_bolditalic';
            src: url('https://app.creately.com/diagram/assets/fonts/noto/noto-bolditalic.woff') format('woff'),
                 url('https://app.creately.com/diagram/assets/fonts/noto/noto-bolditalic.woff2') format('woff2');
            font-weight: normal;
            font-style: normal;
        }
        @font-face {
            font-family: 'noto_italic';
            src: url('https://app.creately.com/diagram/assets/fonts/noto/noto-italic.woff') format('woff'),
                 url('https://app.creately.com/diagram/assets/fonts/noto/noto-italic.woff2') format('woff2');
            font-weight: normal;
            font-style: normal;
        }
        @font-face {
            font-family: 'noto_regular';
            src: url('https://app.creately.com/diagram/assets/fonts/noto/noto-regular.woff') format('woff'),
                 url('https://app.creately.com/diagram/assets/fonts/noto/noto-regular.woff2') format('woff2');
            font-weight: normal;
            font-style: normal;
        }
        p {
            margin: 0;
        }
        </style></defs><defs><style>
            span{ display: inline-block; }
        </style></defs><g id="anzRlI7v2S8"><g transform="translate(-909.9999999999998 280)"><path d="M 10,0 L 270.0000000000003,0 L 270.0000000000003,0 L 270.0000000000003,0 A 10 10 0 0 1 280.0000000000003 10 L 280.0000000000003,160 L 280.0000000000003,160 L 280.0000000000003,160 A 10 10 0 0 1 270.0000000000003 170 L 10,170 L 10,170 L 10,170 A 10 10 0 0 1 0 160 L 0,10 L 0,10 L 0,10.000000000000002 A 10 10 0 0 1 10 0 Z" fill="rgb(143,209,243)" stroke="#62B7E2" stroke-width="2" stroke-linecap="round" stroke-linejoin="round" stroke-dasharray="0 0"/></g><g transform="translate(-805.2499999999997, 346.75) rotate(0, 35.25, 18.25)" width="70.5" height="36.5"><text text-decoration="none" x="0" fill="#ffffff" font-size="20pt" font-family="noto_regular"  y="28.5">HEAD</text><text text-decoration="none" x="70.5" fill="#4b4b4b" font-size="10pt" font-family="noto_regular"  y="28.5"></text></g></g><g id="PQ8n5PCICiC"><g transform="translate(-909.9999999999998 1970)"><path d="M 10,0 L 269.99999999999955,0 L 269.99999999999955,0 L 269.99999999999955,0 A 10 10 0 0 1 279.99999999999955 10 L 279.99999999999955,149.99999999999994 L 279.99999999999955,149.99999999999994 L 279.99999999999955,149.99999999999994 A 10 10 0 0 1 269.99999999999955 159.99999999999994 L 10,159.99999999999994 L 10,159.99999999999994 L 10,159.99999999999994 A 10 10 0 0 1 0 149.99999999999994 L 0,10 L 0,10 L 0,10.000000000000002 A 10 10 0 0 1 10 0 Z" fill="rgb(143,209,243)" stroke="#62B7E2" stroke-width="2" stroke-linecap="round" stroke-linejoin="round" stroke-dasharray="0 0"/></g><g transform="translate(-819.5, 2031.75) rotate(0, 49.5, 18.25)" width="99" height="36.5"><text text-decoration="none" x="0" fill="#FFFFFF" font-weight="bold" font-size="20pt" font-family="noto_regular"  y="28.5">Commit</text><text text-decoration="none" x="99" fill="#4b4b4b" font-size="10pt" font-family="noto_regular"  y="28.5"></text></g></g><g id="VcXVbh4MTSX"><g transform="translate(-899.9999999999995 1979.999999999999)"><path d="M 10,0 L 76,0 L 76,0 L 76,0 A 10 10 0 0 1 86 10 L 86,34.5 L 86,34.5 L 86,34.5 A 10 10 0 0 1 76 44.5 L 10,44.5 L 10,44.5 L 10,44.5 A 10 10 0 0 1 0 34.5 L 0,10 L 0,10 L 0,10.000000000000002 A 10 10 0 0 1 10 0 Z" fill="rgb(254,190,50)" stroke="#BB881A" stroke-width="2" stroke-linecap="round" stroke-linejoin="round" stroke-dasharray="0 0"/></g><g transform="translate(-862.4999999999995, 1989.999999999999) rotate(0, 5.5, 12.25)" width="11" height="24.5"><text text-decoration="none" x="0" fill="#ffffff" font-weight="bold" font-size="14pt" font-family="courier_prime"  y="16.5">#</text><text text-decoration="none" x="11" fill="#4b4b4b" font-size="10pt" font-family="noto_regular"  y="16.5"></text></g></g><g id="oH8SfKF6paE"><g transform="translate(-909.9999999999998 1690)"><path d="M 10,0 L 269.99999999999955,0 L 269.99999999999955,0 L 269.99999999999955,0 A 10 10 0 0 1 279.99999999999955 10 L 279.99999999999955,149.99999999999977 L 279.99999999999955,149.99999999999977 L 279.99999999999955,149.99999999999977 A 10 10 0 0 1 269.99999999999955 159.99999999999977 L 10,159.99999999999977 L 10,159.99999999999977 L 10,159.99999999999977 A 10 10 0 0 1 0 149.99999999999977 L 0,10 L 0,10 L 0,10.000000000000002 A 10 10 0 0 1 10 0 Z" fill="rgb(177,197,133)" stroke="#749032" stroke-width="2" stroke-linecap="round" stroke-linejoin="round" stroke-dasharray="0 0"/></g><g transform="translate(-840, 1751.75) rotate(0, 70, 18.25)" width="140" height="36.5"><text text-decoration="none" x="0" fill="#ffffff" font-weight="bold" font-size="20pt" font-family="noto_regular"  y="28.5">Timestamp</text><text text-decoration="none" x="140" fill="#4b4b4b" font-size="10pt" font-family="noto_regular"  y="28.5"></text></g></g><g id="PUA9YkyAZa8"><g transform="translate(-909.9999999999998 1410)"><path d="M 10,0 L 269.99999999999955,0 L 269.99999999999955,0 L 269.99999999999955,0 A 10 10 0 0 1 279.99999999999955 10 L 279.99999999999955,149.99999999999977 L 279.99999999999955,149.99999999999977 L 279.99999999999955,149.99999999999977 A 10 10 0 0 1 269.99999999999955 159.99999999999977 L 10,159.99999999999977 L 10,159.99999999999977 L 10,159.99999999999977 A 10 10 0 0 1 0 149.99999999999977 L 0,10 L 0,10 L 0,10.000000000000002 A 10 10 0 0 1 10 0 Z" fill="rgb(143,209,243)" stroke="#62B7E2" stroke-width="2" stroke-linecap="round" stroke-linejoin="round" stroke-dasharray="0 0"/></g><g transform="translate(-819.5, 1471.75) rotate(0, 49.5, 18.25)" width="99" height="36.5"><text text-decoration="none" x="0" fill="#FFFFFF" font-weight="bold" font-size="20pt" font-family="noto_regular"  y="28.5">Commit</text><text text-decoration="none" x="99" fill="#4b4b4b" font-size="10pt" font-family="noto_regular"  y="28.5"></text></g></g><g id="LbbbYruYCjc"><g transform="translate(-900.0000000000002 1420.0000000000005)"><path d="M 10,0 L 76,0 L 76,0 L 76,0 A 10 10 0 0 1 86 10 L 86,34.5 L 86,34.5 L 86,34.5 A 10 10 0 0 1 76 44.5 L 10,44.5 L 10,44.5 L 10,44.5 A 10 10 0 0 1 0 34.5 L 0,10 L 0,10 L 0,10.000000000000002 A 10 10 0 0 1 10 0 Z" fill="rgb(254,190,50)" stroke="#BB881A" stroke-width="2" stroke-linecap="round" stroke-linejoin="round" stroke-dasharray="0 0"/></g><g transform="translate(-862.5000000000002, 1430.0000000000005) rotate(0, 5.5, 12.25)" width="11" height="24.5"><text text-decoration="none" x="0" fill="#ffffff" font-weight="bold" font-size="14pt" font-family="courier_prime"  y="16.5">#</text><text text-decoration="none" x="11" fill="#4b4b4b" font-size="10pt" font-family="noto_regular"  y="16.5"></text></g></g><g id="qyYeDdkMOzs"><g transform="translate(-909.9999999999999 850.0000000000001)"><path d="M 10,0 L 269.99999999999955,0 L 269.99999999999955,0 L 269.99999999999955,0 A 10 10 0 0 1 279.99999999999955 10 L 279.99999999999955,149.99999999999977 L 279.99999999999955,149.99999999999977 L 279.99999999999955,149.99999999999977 A 10 10 0 0 1 269.99999999999955 159.99999999999977 L 10,159.99999999999977 L 10,159.99999999999977 L 10,159.99999999999977 A 10 10 0 0 1 0 149.99999999999977 L 0,10 L 0,10 L 0,10.000000000000002 A 10 10 0 0 1 10 0 Z" fill="rgb(177,197,133)" stroke="#749032" stroke-width="2" stroke-linecap="round" stroke-linejoin="round" stroke-dasharray="0 0"/></g><g transform="translate(-840.0000000000001, 911.75) rotate(0, 70, 18.25)" width="140" height="36.5"><text text-decoration="none" x="0" fill="#ffffff" font-weight="bold" font-size="20pt" font-family="noto_regular"  y="28.5">Timestamp</text><text text-decoration="none" x="140" fill="#4b4b4b" font-size="10pt" font-family="noto_regular"  y="28.5"></text></g></g><g id="zXRNew2BifJ"><g transform="translate(-510.0000000000002 2030.000000000001)"><path d="M 10,0 L 269.99999999999955,0 L 269.99999999999955,0 L 269.99999999999955,0 A 10 10 0 0 1 279.99999999999955 10 L 279.99999999999955,149.99999999999994 L 279.99999999999955,149.99999999999994 L 279.99999999999955,149.99999999999994 A 10 10 0 0 1 269.99999999999955 159.99999999999994 L 10,159.99999999999994 L 10,159.99999999999994 L 10,159.99999999999994 A 10 10 0 0 1 0 149.99999999999994 L 0,10 L 0,10 L 0,10.000000000000002 A 10 10 0 0 1 10 0 Z" fill="rgb(143,209,243)" stroke="#62B7E2" stroke-width="2" stroke-linecap="round" stroke-linejoin="round" stroke-dasharray="0 0"/></g><g transform="translate(-416.50000000000045, 2091.750000000001) rotate(0, 46.5, 18.25)" width="93" height="36.5"><text text-decoration="none" x="0" fill="#ffffff" font-weight="bold" font-size="20pt" font-family="noto_regular"  y="28.5">Files&#160;</text><text text-decoration="none" x="62.5" fill="#ffffff" font-weight="bold" font-size="20pt" font-family="noto_regular"  y="28.5">V1</text><text text-decoration="none" x="93" fill="#4b4b4b" font-size="10pt" font-family="noto_regular"  y="28.5"></text></g></g><g id="6wPRVS6wqSw"><g transform="translate(-510 1480)"><path d="M 10,0 L 269.99999999999955,0 L 269.99999999999955,0 L 269.99999999999955,0 A 10 10 0 0 1 279.99999999999955 10 L 279.99999999999955,149.99999999999977 L 279.99999999999955,149.99999999999977 L 279.99999999999955,149.99999999999977 A 10 10 0 0 1 269.99999999999955 159.99999999999977 L 10,159.99999999999977 L 10,159.99999999999977 L 10,159.99999999999977 A 10 10 0 0 1 0 149.99999999999977 L 0,10 L 0,10 L 0,10.000000000000002 A 10 10 0 0 1 10 0 Z" fill="rgb(177,197,133)" stroke="#749032" stroke-width="2" stroke-linecap="round" stroke-linejoin="round" stroke-dasharray="0 0"/></g><g transform="translate(-455.5000000000002, 1523.5) rotate(0, 85.5, 36.5)" width="171" height="73"><text text-decoration="none" x="15.5" fill="#ffffff" font-weight="bold" font-size="20pt" font-family="noto_regular"  y="28.5">Timestamp</text><text text-decoration="none" x="155.5" fill="#ffffff" font-weight="bold" font-size="20pt" font-family="noto_regular"  y="28.5"></text><text text-decoration="none" x="0" fill="#ffffff" font-weight="bold" font-size="20pt" font-family="noto_regular"  y="65">LTV&#160;</text><text text-decoration="none" x="51.5" fill="#ffffff" font-weight="bold" font-size="20pt" font-family="noto_regular"  y="65">Metadata</text><text text-decoration="none" x="171" fill="#4b4b4b" font-size="10pt" font-family="noto_regular"  y="65"></text></g></g><g id="bxR8uOmsNTC"><g><path d="M -770,450 L -769.9999999999998,500 Q -769.9999999999998,500.00000000000034 -770,510 Q -770,520 -770,520 L -770,570" fill="none" stroke="#F5C457"  stroke-dasharray="0 0"/><path d="M -770,570 L -763.75,556.9565784496589 L -770,561.304385633106 L -776.25,556.9565784496589 Z" fill="rgb(245,196,87)" stroke="#F5C457"/></g></g><g id="8TG2QlQ4MaF"><g><path d="M -770,1010 L -770.0000000000001,1060 Q -770.0000000000001,1060 -770,1070 Q -770,1080 -770,1080 L -770,1130" fill="none" stroke="#F5C457" stroke-width="4" stroke-linecap="round" stroke-linejoin="round" stroke-dasharray="0 0"/><path d="M -770,1130 L -763.75,1116.956578449659 L -770,1121.304385633106 L -776.25,1116.956578449659 Z" fill="rgb(245,196,87)" stroke="#F5C457" stroke-width="4" stroke-linecap="round" stroke-linejoin="round"/></g></g><g id="YcXwWPf1f5c"><g><path d="M -770,1570 L -770,1690" fill="none" stroke="#F5C457" stroke-width="4" stroke-linecap="round" stroke-linejoin="round" stroke-dasharray="0 0"/><path d="M -770,1690 L -763.75,1676.956578449659 L -770,1681.304385633106 L -776.25,1676.956578449659 Z" fill="rgb(245,196,87)" stroke="#F5C457" stroke-width="4" stroke-linecap="round" stroke-linejoin="round"/></g></g><g id="lfOK1Ndonje"><mask id="a692b" x="-648" y="1472" width="156" height="106" maskUnits="userSpaceOnUse"><rect x="-648" y="1472" width="156" height="106" fill="white" /><rect x="-559.7038413878565" y="1521.0060925237503" width="6" height="23.5" fill="black" /></mask><g mask="url(#a692b)"><path d="M -630,1490 L -510,1560" fill="none" stroke="#F5C457" stroke-width="4" stroke-linecap="round" stroke-linejoin="round" stroke-dasharray="0 0"/><path d="M -510,1560 L -518.117438421183,1548.0291796764714 L -517.5110882204724,1555.618531871391 L -524.4158262402341,1558.826415937702 Z" fill="rgb(245,196,87)" stroke="#F5C457" stroke-width="4" stroke-linecap="round" stroke-linejoin="round"/></g><g transform="translate(-556.7038413878565, 1524.0060925237503)" width="0" height="17.5"><text text-decoration="none" x="0" fill="#4b4b4b" font-size="10pt" font-family="noto_regular"  y="15"></text></g></g><g id="K3aB19J7IIo"><g><path d="M -770,1850 L -770,1970" fill="none" stroke="#F5C457" stroke-width="4" stroke-linecap="round" stroke-linejoin="round" stroke-dasharray="0 0"/><path d="M -770,1970 L -763.75,1956.956578449659 L -770,1961.304385633106 L -776.25,1956.956578449659 Z" fill="rgb(245,196,87)" stroke="#F5C457" stroke-width="4" stroke-linecap="round" stroke-linejoin="round"/></g></g><g id="dh2o0QJrOcW"><g><path d="M -630,2050 L -510,2110" fill="none" stroke="#F5C457" stroke-width="4" stroke-linecap="round" stroke-linejoin="round" stroke-dasharray="0 0"/><path d="M -510,2110 L -518.8713059264245,2098.576634607101 L -517.7775939321996,2106.1112030339 L -524.4614758701741,2109.7569744945995 Z" fill="rgb(245,196,87)" stroke="#F5C457" stroke-width="4" stroke-linecap="round" stroke-linejoin="round"/></g></g><g id="ZmTnUdKaZ7v"><g transform="translate(-499.9999999999998 2040)"><path d="M 10,0 L 76,0 L 76,0 L 76,0 A 10 10 0 0 1 86 10 L 86,34.5 L 86,34.5 L 86,34.5 A 10 10 0 0 1 76 44.5 L 10,44.5 L 10,44.5 L 10,44.5 A 10 10 0 0 1 0 34.5 L 0,10 L 0,10 L 0,10.000000000000002 A 10 10 0 0 1 10 0 Z" fill="rgb(254,190,50)" stroke="#BB881A" stroke-width="2" stroke-linecap="round" stroke-linejoin="round" stroke-dasharray="0 0"/></g><g transform="translate(-462.4999999999998, 2050) rotate(0, 5.5, 12.25)" width="11" height="24.5"><text text-decoration="none" x="0" fill="#ffffff" font-weight="bold" font-size="14pt" font-family="courier_prime"  y="16.5">#</text><text text-decoration="none" x="11" fill="#4b4b4b" font-size="10pt" font-family="noto_regular"  y="16.5"></text></g></g><g id="t2NAo01gRsf"><g transform="translate(-499.9999999999993 1490.000000000001)"><path d="M 10,0 L 76,0 L 76,0 L 76,0 A 10 10 0 0 1 86 10 L 86,34.5 L 86,34.5 L 86,34.5 A 10 10 0 0 1 76 44.5 L 10,44.5 L 10,44.5 L 10,44.5 A 10 10 0 0 1 0 34.5 L 0,10 L 0,10 L 0,10.000000000000002 A 10 10 0 0 1 10 0 Z" fill="rgb(254,190,50)" stroke="#BB881A" stroke-width="2" stroke-linecap="round" stroke-linejoin="round" stroke-dasharray="0 0"/></g><g transform="translate(-462.4999999999993, 1500.000000000001) rotate(0, 5.5, 12.25)" width="11" height="24.5"><text text-decoration="none" x="0" fill="#ffffff" font-weight="bold" font-size="14pt" font-family="courier_prime"  y="16.5">#</text><text text-decoration="none" x="11" fill="#4b4b4b" font-size="10pt" font-family="noto_regular"  y="16.5"></text></g></g><g id="zKaRyoadgIs"><g transform="translate(-909.9999999999998 1130)"><path d="M 10,0 L 269.99999999999955,0 L 269.99999999999955,0 L 269.99999999999955,0 A 10 10 0 0 1 279.99999999999955 10 L 279.99999999999955,149.99999999999977 L 279.99999999999955,149.99999999999977 L 279.99999999999955,149.99999999999977 A 10 10 0 0 1 269.99999999999955 159.99999999999977 L 10,159.99999999999977 L 10,159.99999999999977 L 10,159.99999999999977 A 10 10 0 0 1 0 149.99999999999977 L 0,10 L 0,10 L 0,10.000000000000002 A 10 10 0 0 1 10 0 Z" fill="rgb(143,209,243)" stroke="#62B7E2" stroke-width="2" stroke-linecap="round" stroke-linejoin="round" stroke-dasharray="0 0"/></g><g transform="translate(-819.5, 1191.75) rotate(0, 49.5, 18.25)" width="99" height="36.5"><text text-decoration="none" x="0" fill="#FFFFFF" font-weight="bold" font-size="20pt" font-family="noto_regular"  y="28.5">Commit</text><text text-decoration="none" x="99" fill="#4b4b4b" font-size="10pt" font-family="noto_regular"  y="28.5"></text></g></g><g id="3xRfKwMLhzP"><g transform="translate(-899.9999999999998 1140.0000000000005)"><path d="M 10,0 L 76,0 L 76,0 L 76,0 A 10 10 0 0 1 86 10 L 86,34.5 L 86,34.5 L 86,34.5 A 10 10 0 0 1 76 44.5 L 10,44.5 L 10,44.5 L 10,44.5 A 10 10 0 0 1 0 34.5 L 0,10 L 0,10 L 0,10.000000000000002 A 10 10 0 0 1 10 0 Z" fill="rgb(254,190,50)" stroke="#BB881A" stroke-width="2" stroke-linecap="round" stroke-linejoin="round" stroke-dasharray="0 0"/></g><g transform="translate(-862.4999999999998, 1150.0000000000005) rotate(0, 5.5, 12.25)" width="11" height="24.5"><text text-decoration="none" x="0" fill="#ffffff" font-weight="bold" font-size="14pt" font-family="courier_prime"  y="16.5">#</text><text text-decoration="none" x="11" fill="#4b4b4b" font-size="10pt" font-family="noto_regular"  y="16.5"></text></g></g><g id="ZJukCeOOjrk"><g transform="translate(-510.00000000000114 1190)"><path d="M 10,0 L 269.99999999999955,0 L 269.99999999999955,0 L 269.99999999999955,0 A 10 10 0 0 1 279.99999999999955 10 L 279.99999999999955,149.99999999999977 L 279.99999999999955,149.99999999999977 L 279.99999999999955,149.99999999999977 A 10 10 0 0 1 269.99999999999955 159.99999999999977 L 10,159.99999999999977 L 10,159.99999999999977 L 10,159.99999999999977 A 10 10 0 0 1 0 149.99999999999977 L 0,10 L 0,10 L 0,10.000000000000002 A 10 10 0 0 1 10 0 Z" fill="rgb(143,209,243)" stroke="#62B7E2" stroke-width="2" stroke-linecap="round" stroke-linejoin="round" stroke-dasharray="0 0"/></g><g transform="translate(-416.50000000000136, 1251.75) rotate(0, 46.5, 18.25)" width="93" height="36.5"><text text-decoration="none" x="0" fill="#ffffff" font-weight="bold" font-size="20pt" font-family="noto_regular"  y="28.5">Files&#160;</text><text text-decoration="none" x="62.5" fill="#ffffff" font-weight="bold" font-size="20pt" font-family="noto_regular"  y="28.5">V2</text><text text-decoration="none" x="93" fill="#4b4b4b" font-size="10pt" font-family="noto_regular"  y="28.5"></text></g></g><g id="HMwDacJENeV"><g><path d="M -630,1210 L -510,1270" fill="none" stroke="#F5C457" stroke-width="4" stroke-linecap="round" stroke-linejoin="round" stroke-dasharray="0 0"/><path d="M -510,1270 L -518.8713059264246,1258.576634607101 L -517.7775939321996,1266.1112030339002 L -524.4614758701741,1269.7569744945997 Z" fill="rgb(245,196,87)" stroke="#F5C457" stroke-width="4" stroke-linecap="round" stroke-linejoin="round"/></g></g><g id="DZedq8awmDb"><g transform="translate(-500 1200)"><path d="M 10,0 L 76,0 L 76,0 L 76,0 A 10 10 0 0 1 86 10 L 86,34.5 L 86,34.5 L 86,34.5 A 10 10 0 0 1 76 44.5 L 10,44.5 L 10,44.5 L 10,44.5 A 10 10 0 0 1 0 34.5 L 0,10 L 0,10 L 0,10.000000000000002 A 10 10 0 0 1 10 0 Z" fill="rgb(254,190,50)" stroke="#BB881A" stroke-width="2" stroke-linecap="round" stroke-linejoin="round" stroke-dasharray="0 0"/></g><g transform="translate(-462.5, 1210) rotate(0, 5.5, 12.25)" width="11" height="24.5"><text text-decoration="none" x="0" fill="#ffffff" font-weight="bold" font-size="14pt" font-family="courier_prime"  y="16.5">#</text><text text-decoration="none" x="11" fill="#4b4b4b" font-size="10pt" font-family="noto_regular"  y="16.5"></text></g></g><g id="6hCfOv6UUrY"><g transform="translate(-909.9999999999998 570)"><path d="M 10,0 L 269.99999999999955,0 L 269.99999999999955,0 L 269.99999999999955,0 A 10 10 0 0 1 279.99999999999955 10 L 279.99999999999955,149.99999999999977 L 279.99999999999955,149.99999999999977 L 279.99999999999955,149.99999999999977 A 10 10 0 0 1 269.99999999999955 159.99999999999977 L 10,159.99999999999977 L 10,159.99999999999977 L 10,159.99999999999977 A 10 10 0 0 1 0 149.99999999999977 L 0,10 L 0,10 L 0,10.000000000000002 A 10 10 0 0 1 10 0 Z" fill="rgb(143,209,243)" stroke="#62B7E2" stroke-width="2" stroke-linecap="round" stroke-linejoin="round" stroke-dasharray="0 0"/></g><g transform="translate(-819.5, 631.7499999999999) rotate(0, 49.5, 18.25)" width="99" height="36.5"><text text-decoration="none" x="0" fill="#FFFFFF" font-weight="bold" font-size="20pt" font-family="noto_regular"  y="28.5">Commit</text><text text-decoration="none" x="99" fill="#4b4b4b" font-size="10pt" font-family="noto_regular"  y="28.5"></text></g></g><g id="mdWOuFfJ1hv"><g transform="translate(-900.0000000000002 580.0000000000003)"><path d="M 10,0 L 76,0 L 76,0 L 76,0 A 10 10 0 0 1 86 10 L 86,34.5 L 86,34.5 L 86,34.5 A 10 10 0 0 1 76 44.5 L 10,44.5 L 10,44.5 L 10,44.5 A 10 10 0 0 1 0 34.5 L 0,10 L 0,10 L 0,10.000000000000002 A 10 10 0 0 1 10 0 Z" fill="rgb(254,190,50)" stroke="#BB881A" stroke-width="2" stroke-linecap="round" stroke-linejoin="round" stroke-dasharray="0 0"/></g><g transform="translate(-862.5000000000002, 590.0000000000003) rotate(0, 5.5, 12.25)" width="11" height="24.5"><text text-decoration="none" x="0" fill="#ffffff" font-weight="bold" font-size="14pt" font-family="courier_prime"  y="16.5">#</text><text text-decoration="none" x="11" fill="#4b4b4b" font-size="10pt" font-family="noto_regular"  y="16.5"></text></g></g><g id="N6xLYqhcS32"><g transform="translate(-506.0000000000002 629.9999999999998)"><path d="M 10,0 L 269.99999999999955,0 L 269.99999999999955,0 L 269.99999999999955,0 A 10 10 0 0 1 279.99999999999955 10 L 279.99999999999955,149.99999999999977 L 279.99999999999955,149.99999999999977 L 279.99999999999955,149.99999999999977 A 10 10 0 0 1 269.99999999999955 159.99999999999977 L 10,159.99999999999977 L 10,159.99999999999977 L 10,159.99999999999977 A 10 10 0 0 1 0 149.99999999999977 L 0,10 L 0,10 L 0,10.000000000000002 A 10 10 0 0 1 10 0 Z" fill="rgb(177,197,133)" stroke="#749032" stroke-width="2" stroke-linecap="round" stroke-linejoin="round" stroke-dasharray="0 0"/></g><g transform="translate(-451.50000000000045, 673.4999999999997) rotate(0, 85.5, 36.5)" width="171" height="73"><text text-decoration="none" x="15.5" fill="#ffffff" font-weight="bold" font-size="20pt" font-family="noto_regular"  y="28.5">Timestamp</text><text text-decoration="none" x="155.5" fill="#ffffff" font-weight="bold" font-size="20pt" font-family="noto_regular"  y="28.5"></text><text text-decoration="none" x="0" fill="#ffffff" font-weight="bold" font-size="20pt" font-family="noto_regular"  y="65">LTV&#160;</text><text text-decoration="none" x="51.5" fill="#ffffff" font-weight="bold" font-size="20pt" font-family="noto_regular"  y="65">Metadata</text><text text-decoration="none" x="171" fill="#4b4b4b" font-size="10pt" font-family="noto_regular"  y="65"></text></g></g><g id="mdMFN3x4Xao"><g><path d="M -770,730 L -770,790 Q -770.0000000000001,799.9999999999999 -770.0000000000001,800 L -770,850" fill="none" stroke="#F5C457" stroke-width="4" stroke-linecap="round" stroke-linejoin="round" stroke-dasharray="0 0"/><path d="M -770,850 L -763.75,836.9565784496589 L -770,841.304385633106 L -776.25,836.9565784496589 Z" fill="rgb(245,196,87)" stroke="#F5C457" stroke-width="4" stroke-linecap="round" stroke-linejoin="round"/></g></g><g id="4dmnRweDZkY"><mask id="0d440" x="-648" y="632" width="160" height="96" maskUnits="userSpaceOnUse"><rect x="-648" y="632" width="160" height="96" fill="white" /><rect x="-557.2606361007851" y="674.8980793060717" width="6" height="23.5" fill="black" /></mask><g mask="url(#0d440)"><path d="M -630,650 L -506,710" fill="none" stroke="#F5C457" stroke-width="4" stroke-linecap="round" stroke-linejoin="round" stroke-dasharray="0 0"/><path d="M -506,710 L -515.0189007780002,698.6927998825311 L -513.8274377191013,706.2125301359188 L -520.4634123793038,709.944790525225 Z" fill="rgb(245,196,87)" stroke="#F5C457" stroke-width="4" stroke-linecap="round" stroke-linejoin="round"/></g><g transform="translate(-554.2606361007851, 677.8980793060717)" width="0" height="17.5"><text text-decoration="none" x="0" fill="#4b4b4b" font-size="10pt" font-family="noto_regular"  y="15"></text></g></g><g id="cxfSP4GQd49"><g transform="translate(-495.9999999999998 640.0000000000007)"><path d="M 10,0 L 76,0 L 76,0 L 76,0 A 10 10 0 0 1 86 10 L 86,34.5 L 86,34.5 L 86,34.5 A 10 10 0 0 1 76 44.5 L 10,44.5 L 10,44.5 L 10,44.5 A 10 10 0 0 1 0 34.5 L 0,10 L 0,10 L 0,10.000000000000002 A 10 10 0 0 1 10 0 Z" fill="rgb(254,190,50)" stroke="#BB881A" stroke-width="2" stroke-linecap="round" stroke-linejoin="round" stroke-dasharray="0 0"/></g><g transform="translate(-458.4999999999998, 650.0000000000007) rotate(0, 5.5, 12.25)" width="11" height="24.5"><text text-decoration="none" x="0" fill="#ffffff" font-weight="bold" font-size="14pt" font-family="courier_prime"  y="16.5">#</text><text text-decoration="none" x="11" fill="#4b4b4b" font-size="10pt" font-family="noto_regular"  y="16.5"></text></g></g><g id="bpwsk1auO2D"><mask id="c1429" x="-788" y="1272" width="36" height="156" maskUnits="userSpaceOnUse"><rect x="-788" y="1272" width="36" height="156" fill="white" /><rect x="-773" y="1330.9351851851845" width="6" height="23.5" fill="black" /></mask><g mask="url(#c1429)"><path d="M -770,1290 L -770,1410" fill="none" stroke="#F5C457" stroke-width="4" stroke-linecap="round" stroke-linejoin="round" stroke-dasharray="0 0"/><path d="M -770,1410 L -763.75,1396.956578449659 L -770,1401.304385633106 L -776.25,1396.956578449659 Z" fill="rgb(245,196,87)" stroke="#F5C457" stroke-width="4" stroke-linecap="round" stroke-linejoin="round"/></g><g transform="translate(-770, 1333.9351851851845)" width="0" height="17.5"><text text-decoration="none" x="0" fill="#4b4b4b" font-size="10pt" font-family="noto_regular"  y="15"></text></g></g><g id="e8OeHWbfsGx"><g transform="translate(-900 860)"><path d="M 10,0 L 76,0 L 76,0 L 76,0 A 10 10 0 0 1 86 10 L 86,34.5 L 86,34.5 L 86,34.5 A 10 10 0 0 1 76 44.5 L 10,44.5 L 10,44.5 L 10,44.5 A 10 10 0 0 1 0 34.5 L 0,10 L 0,10 L 0,10.000000000000002 A 10 10 0 0 1 10 0 Z" fill="rgb(254,190,50)" stroke="#BB881A" stroke-width="2" stroke-linecap="round" stroke-linejoin="round" stroke-dasharray="0 0"/></g><g transform="translate(-862.5, 870) rotate(0, 5.5, 12.25)" width="11" height="24.5"><text text-decoration="none" x="0" fill="#ffffff" font-weight="bold" font-size="14pt" font-family="courier_prime"  y="16.5">#</text><text text-decoration="none" x="11" fill="#4b4b4b" font-size="10pt" font-family="noto_regular"  y="16.5"></text></g></g><g id="ljtQeBa41IN"><g transform="translate(-900 1700)"><path d="M 10,0 L 76,0 L 76,0 L 76,0 A 10 10 0 0 1 86 10 L 86,34.5 L 86,34.5 L 86,34.5 A 10 10 0 0 1 76 44.5 L 10,44.5 L 10,44.5 L 10,44.5 A 10 10 0 0 1 0 34.5 L 0,10 L 0,10 L 0,10.000000000000002 A 10 10 0 0 1 10 0 Z" fill="rgb(254,190,50)" stroke="#BB881A" stroke-width="2" stroke-linecap="round" stroke-linejoin="round" stroke-dasharray="0 0"/></g><g transform="translate(-862.5, 1710) rotate(0, 5.5, 12.25)" width="11" height="24.5"><text text-decoration="none" x="0" fill="#ffffff" font-weight="bold" font-size="14pt" font-family="courier_prime"  y="16.5">#</text><text text-decoration="none" x="11" fill="#4b4b4b" font-size="10pt" font-family="noto_regular"  y="16.5"></text></g></g></svg>